<?xml version="1.0" encoding="utf-8"?>
<!-- Generator: Adobe Illustrator 23.0.6, SVG Export Plug-In . SVG Version: 6.00 Build 0)  -->
<svg version="1.1" id="Layer_1" xmlns="http://www.w3.org/2000/svg" xmlns:xlink="http://www.w3.org/1999/xlink" x="0px" y="0px"
	 viewBox="0 0 18 20" style="enable-background:new 0 0 18 20;" xml:space="preserve">
<style type="text/css">
	.st0{fill:#FDCC0C;}
</style>
<path class="st0" d="M1.8,15.1c0.4,1,0.6,1.4,1.2,2.2C3.8,18.5,4.9,20,6.3,20c1.2,0,1.5-0.8,3.2-0.8c1.6,0,2,0.8,3.2,0.8
	c1.4,0,2.4-1.3,3.2-2.5c2.2-3.3,2.4-7.2,1.1-9.2C16,6.8,14.5,6,13.1,6s-2.3,0.8-3.5,0.8S7.7,6,6.1,6C4.8,6,3.5,6.7,2.6,7.9
	C1.2,9.8,0.8,12.2,1.8,15.1z"/>
<path class="st0" d="M12,3.4c0.7-0.9,1.2-2.1,1-3.4c-1.1,0.1-2.4,0.8-3.2,1.7C9.1,2.5,8.6,3.8,8.8,5C10,5,11.3,4.3,12,3.4z"/>
</svg>
