<?xml version="1.0" encoding="utf-8"?>
<!-- Generator: Adobe Illustrator 23.0.6, SVG Export Plug-In . SVG Version: 6.00 Build 0)  -->
<svg version="1.1" id="Layer_1" xmlns="http://www.w3.org/2000/svg" xmlns:xlink="http://www.w3.org/1999/xlink" x="0px" y="0px"
	 viewBox="0 0 32 32" style="enable-background:new 0 0 32 32;" xml:space="preserve">
<style type="text/css">
	.st0{fill:#FF0101;}
</style>
<path class="st0" d="M29.7,20.6l2.3-2.3L29.7,16L24,21.7L10.3,8L16,2.3L13.7,0l-2.3,2.3L9.1,0L5.7,3.4L3.4,1.1L1.1,3.4l2.3,2.3
	L0,9.1l2.3,2.3L0,13.7L2.3,16L8,10.3L21.7,24L16,29.7l2.3,2.3l2.3-2.3l2.3,2.3l3.4-3.4l2.3,2.3l2.3-2.3l-2.3-2.3l3.4-3.4L29.7,20.6z
	"/>
</svg>
