<?xml version="1.0" encoding="utf-8"?>
<!-- Generator: Adobe Illustrator 23.0.6, SVG Export Plug-In . SVG Version: 6.00 Build 0)  -->
<svg version="1.1" id="Layer_1" xmlns="http://www.w3.org/2000/svg" xmlns:xlink="http://www.w3.org/1999/xlink" x="0px" y="0px"
	 viewBox="0 0 20 19" style="enable-background:new 0 0 20 19;" xml:space="preserve">
<style type="text/css">
	.st0{fill:#FD5181;}
	.st1{fill-rule:evenodd;clip-rule:evenodd;fill:#FD5181;}
</style>
<path class="st0" d="M1.3,15c0,2.1,1.6,3.7,3.8,3.7h10c2.1,0,3.8-1.6,3.8-3.7H1.3z"/>
<path class="st0" d="M18.8,12.5H1.3C0.5,12.5,0,12,0,11.2S0.5,10,1.3,10h17.5c0.8,0,1.3,0.5,1.3,1.3S19.5,12.5,18.8,12.5z"/>
<path class="st1" d="M11.3,0H8.8C4.6,0,1.3,3.4,1.3,7.5h17.5C18.8,3.4,15.4,0,11.3,0z M7.5,5C6.8,5,6.3,4.5,6.3,3.7s0.5-1.3,1.3-1.3
	S8.8,3,8.8,3.7S8.3,5,7.5,5z M12.5,5c0,0.8,0.5,1.3,1.3,1.3S15,5.7,15,5s-0.5-1.3-1.3-1.3S12.5,4.2,12.5,5z"/>
</svg>
