<?xml version="1.0" encoding="utf-8"?>
<!-- Generator: Adobe Illustrator 23.0.6, SVG Export Plug-In . SVG Version: 6.00 Build 0)  -->
<svg version="1.1" id="Layer_1" xmlns="http://www.w3.org/2000/svg" xmlns:xlink="http://www.w3.org/1999/xlink" x="0px" y="0px"
	 viewBox="0 0 17 20" style="enable-background:new 0 0 17 20;" xml:space="preserve">
<style type="text/css">
	.st0{fill:#FF0000;}
</style>
<path class="st0" d="M10.9,7.9c0,0,0.9-5.5-2.9-7.9C7.9,1.9,7,3.7,5.5,4.9c-1.6,1.4-4.7,4.6-4.6,8.1c0,3,1.6,5.7,4.3,7.1
	c0.1-1.3,0.7-2.6,1.7-3.4c0.9-0.7,1.4-1.6,1.6-2.7c2.3,1.2,3.7,3.5,3.9,6.1v0c2.5-1.2,4.2-3.6,4.3-6.4c0.3-3.2-1.5-7.6-3.1-9
	C13,5.9,12.1,7,10.9,7.9z"/>
</svg>
