<?xml version="1.0" encoding="utf-8"?>
<!-- Generator: Adobe Illustrator 23.0.6, SVG Export Plug-In . SVG Version: 6.00 Build 0)  -->
<svg version="1.1" id="Layer_1" xmlns="http://www.w3.org/2000/svg" xmlns:xlink="http://www.w3.org/1999/xlink" x="0px" y="0px"
	 viewBox="0 0 32 29.1" style="enable-background:new 0 0 32 29.1;" xml:space="preserve">
<style type="text/css">
	.st0{fill:#FF0101;}
</style>
<path class="st0" d="M12.8,8.3l-5.2,5.2c0.5,0.2,0.9,0.4,1.2,0.6c0.6,0.4,0.9,0.6,1.8,0.6c0.9,0,1.2-0.2,1.8-0.6
	c0.7-0.4,1.7-1,3.5-1c1.8,0,2.8,0.6,3.5,1c0.6,0.4,1,0.6,1.8,0.6c0.9,0,1.2-0.2,1.8-0.6c0.2-0.1,0.4-0.2,0.7-0.4L13.6,3.5
	c-2.5-2.5-4.8-3.2-8.8-3.2v4c2.9,0,4.6,0.6,6.4,2.4L12.8,8.3z M32,21.9L32,21.9L32,21.9z M5.4,20.3c0.9,0,1.2,0.2,1.8,0.6
	c0.7,0.4,1.7,1,3.5,1s2.8-0.6,3.5-1c0.6-0.4,0.9-0.6,1.8-0.6c0.9,0,1.2,0.2,1.8,0.6c0.7,0.4,1.7,1,3.5,1c1.8,0,2.8-0.6,3.5-1
	c0.6-0.4,0.9-0.6,1.8-0.6c0.9,0,1.2,0.2,1.8,0.6c0.7,0.4,1.7,1,3.5,1v-3.2c-0.9,0-1.2-0.2-1.8-0.6c-0.7-0.4-1.7-1-3.5-1
	c-1.8,0-2.8,0.6-3.5,1c-0.6,0.4-1,0.6-1.8,0.6c-0.9,0-1.2-0.2-1.8-0.6c-0.7-0.4-1.7-1-3.5-1s-2.8,0.6-3.5,1
	c-0.6,0.4-0.9,0.6-1.8,0.6c-0.9,0-1.2-0.2-1.8-0.6c-0.7-0.4-1.7-1-3.5-1s-2.8,0.6-3.5,1c-0.6,0.4-0.9,0.6-1.8,0.6v3.2
	c1.8,0,2.8-0.6,3.5-1C4.1,20.5,4.5,20.3,5.4,20.3z M26.7,24.3c-1.8,0-2.8,0.6-3.5,1c-0.6,0.4-1,0.6-1.8,0.6c-0.9,0-1.2-0.2-1.8-0.6
	c-0.7-0.4-1.7-1-3.5-1c-1.8,0-2.8,0.6-3.5,1c-0.6,0.4-0.9,0.6-1.8,0.6c-0.9,0-1.2-0.2-1.8-0.6c-0.7-0.4-1.7-1-3.5-1s-2.8,0.6-3.5,1
	c-0.6,0.4-0.9,0.6-1.8,0.6v3.2c1.8,0,2.8-0.6,3.5-1c0.6-0.4,1-0.6,1.8-0.6s1.2,0.2,1.8,0.6c0.7,0.4,1.7,1,3.5,1c1.8,0,2.8-0.6,3.5-1
	c0.6-0.4,0.9-0.6,1.8-0.6c0.9,0,1.2,0.2,1.8,0.6c0.7,0.4,1.7,1,3.5,1c1.8,0,2.8-0.6,3.5-1c0.6-0.4,0.9-0.6,1.8-0.6
	c0.9,0,1.2,0.2,1.8,0.6c0.7,0.4,1.7,1,3.5,1v-3.2c-0.9,0-1.2-0.2-1.8-0.6C29.4,24.9,28.4,24.3,26.7,24.3z"/>
<path class="st0" d="M23.2,8c2.2,0,4-1.8,4-4s-1.8-4-4-4c-2.2,0-4,1.8-4,4S21,8,23.2,8z"/>
</svg>
